<?xml version="1.0" encoding="UTF-8" standalone="no"?>
<!-- Created with Inkscape (http://www.inkscape.org/) -->

<svg
   width="477.57413mm"
   height="465.16397mm"
   viewBox="0 0 477.57413 465.16397"
   version="1.1"
   id="svg5"
   xml:space="preserve"
   xmlns="http://www.w3.org/2000/svg"
   xmlns:svg="http://www.w3.org/2000/svg"><defs
     id="defs2" /><g
     id="layer1"
     transform="translate(343.8465,729.48106)"><path
       id="path995"
       style="fill:#000000;stroke-width:0.949454"
       d="m -117.86723,-729.48106 -2.94426,2.79273 c -8.74602,8.29873 -15.60999,31.08529 -10.73002,35.6211 3.2218,2.99452 10.16745,12.7194 12.32389,17.25559 2.09557,4.40825 1.49212,4.63935 6.22518,-2.37273 2.20297,-3.2637 6.65739,-8.71123 9.89825,-12.10547 l 5.891488,-6.17235 -1.699617,-5.31007 c -3.192841,-9.96938 -9.390171,-20.49096 -15.571321,-26.44038 z m -53.67219,13.65624 c -5.16712,0 -15.62876,41.28956 -15.64227,61.73187 l -0.006,9.03882 8.78293,6.15282 c 16.08891,11.27297 34.03962,31.65941 41.1592,46.7433 2.30843,4.89115 2.56561,4.5349 2.05976,-2.84834 -1.33688,-19.51063 4.16264,-47.42167 12.98443,-65.90006 l 2.56469,-5.37129 -1.62311,-3.17379 c -7.87632,-15.40414 -41.4546,-46.37333 -50.27999,-46.37333 z m 153.748327,6.64657 c -8.78469,0 -38.009656,23.82528 -49.156251,40.07442 l -3.664741,5.34207 1.977706,6.01239 c 5.962907,18.12814 8.463025,44.76465 6.042931,64.38555 -0.646655,5.24078 -0.603174,6.64047 0.1656,5.34059 11.428013,-19.33226 33.301017,-40.97492 51.531847,-50.98937 l 6.4574742,-3.54651 0.8002228,-3.63967 c 1.3151408,-5.98243 0.074001,-24.63308 -2.2295217,-33.54598 -2.7109523,-10.48237 -10.3886483,-29.43349 -11.9246143,-29.43349 z m -72.74136,18.92744 c -10.965637,-0.7188 -31.680497,32.78545 -38.872787,66.04881 l -2.05282,9.49361 0.0647,16.14156 c 0.037,9.57833 0.57635,18.64889 1.33383,22.31113 l 1.27675,6.17235 5.41293,0.28217 c 3.62663,0.18967 6.40113,-0.22759 8.40595,-1.26427 1.69147,-0.87423 3.96078,-1.3044 5.21828,-0.98885 l 2.22527,0.55877 1.0278,-3.56741 c 1.60118,-5.55818 5.48074,-29.93788 6.686993,-42.01874 0.599472,-6.00528 1.438642,-11.2849 1.865028,-11.73136 2.574403,-2.69513 3.063973,38.58545 0.619825,52.32042 -1.965218,11.04538 -1.959667,11.33394 0.173921,9.40312 2.52556,-2.28559 5.408211,-1.92645 7.262786,0.90385 1.273232,1.94329 2.16208,2.3655 4.143117,1.96937 1.387577,-0.27753 4.019247,-0.14713 5.846901,0.28771 5.516263,1.3133 5.971602,0.93991 8.724463,-7.13485 11.36455,-33.33439 4.132664,-88.40609 -15.323758,-116.68496 -1.100791,-1.59997 -2.468201,-2.40076 -4.034695,-2.50336 z m 188.6559,2.90948 c -0.260892,0 -0.475508,0.21463 -0.475508,0.4755 0,0.2609 0.214616,0.4746 0.475508,0.4746 0.260872,0 0.474575,-0.21279 0.474575,-0.4746 0,-0.26087 -0.212769,-0.4755 -0.474575,-0.4755 z m -365.516507,4.89007 c -0.32656,0.008 -0.60502,0.0554 -0.8289,0.14609 -3.72821,1.43059 -4.38698,27.50991 -0.9513,37.65859 l 1.758,5.19182 3.79823,0.72437 c 10.29466,1.96522 17.5457,4.09648 23.66023,6.95536 3.69722,1.72867 6.98137,3.17804 7.29887,3.22116 0.31731,0.0463 0.47551,-7.71859 0.34876,-17.24865 l -0.22942,-17.32791 -5.87049,-4.8859 c -8.20909,-6.83224 -24.08162,-14.6205 -28.98426,-14.4351 z m 39.68356,23.59343 c -1.05556,0 0.58467,31.19083 2.1655,41.17872 3.67779,23.24086 12.98026,45.41769 25.50028,60.7889 2.38374,2.9266 4.00814,5.33132 3.61044,5.34483 -0.3978,0.008 2.90892,2.36312 7.34761,5.22107 9.42552,6.06865 9.0415,5.98141 10.85658,2.47144 0.77616,-1.50026 2.28429,-2.95731 3.35177,-3.23642 2.62418,-0.68643 1.76678,-2.62816 -3.82053,-8.65211 -10.90144,-11.75348 -17.98299,-22.57471 -17.98299,-27.48215 v -1.91934 l 3.40746,3.98187 c 1.87419,2.18957 6.25451,5.98205 9.73284,8.42824 3.47824,2.44619 8.7425,6.50909 11.69935,9.02901 l 5.37685,4.58274 -0.51159,-2.15857 c -1.37009,-5.78585 -13.38129,-28.62503 -20.66443,-39.29279 -9.60406,-14.06709 -9.6308,-14.60132 -0.37282,-7.20283 12.12036,9.68574 21.4691,20.79783 27.78114,33.02302 l 3.38934,6.56727 0.0185,-4.41018 c 0.0185,-5.27612 -2.84685,-14.88628 -6.1668,-20.64908 -2.63584,-4.57535 -2.55868,-5.53024 0.32378,-3.98742 5.12208,2.74119 13.67382,16.5783 16.21113,26.23037 l 1.00699,3.83025 6.90245,-0.37652 c 8.51844,-0.46441 8.05986,0.16186 5.48953,-7.49777 -9.60036,-28.60847 -36.78185,-56.50109 -72.64543,-74.54672 -8.43638,-4.24488 -20.36062,-9.26546 -22.00797,-9.26546 z m 299.517722,1.65502 -5.340678,0.55045 c -6.61011,0.6818 -19.558824,6.89163 -24.72003,11.85375 l -3.646703,3.50617 -0.646653,7.33782 c -0.355245,4.03598 -1.408209,10.33749 -2.339334,14.00397 -1.92442,7.57809 -2.14987,7.41323 6.51594,4.76907 3.394241,-1.03576 9.756058,-2.38791 14.137393,-3.00412 l 7.966519,-1.12106 2.624461,-5.78705 c 4.679212,-10.31981 7.681944,-25.07258 6.111111,-30.02175 z m -37.377703,4.99163 c -6.670528,0 -30.7902603,9.3638 -41.8393471,16.24305 -26.4461139,16.4657 -46.3575059,37.67902 -57.3341559,61.08243 -6.167729,13.15031 -6.190764,13.25539 -3.233547,15.19304 1.361858,0.89181 4.132202,3.11911 6.156996,4.94842 4.561825,4.12139 6.734916,3.67261 8.874703,-1.83587 3.978447,-10.24156 16.011115,-26.58091 23.650512,-32.11483 5.565759,-4.03184 5.344287,-2.97304 -1.545215,7.39071 -6.38069,9.59842 -13.014397,22.39893 -12.935762,24.96056 0.115629,3.75763 21.84978,-22.8215 29.868753,-36.5264 6.4167691,-10.96694 1.160275,7.15157 -6.072258,20.93003 -7.992606,15.22651 -12.773498,21.36826 -21.030223,27.01625 -2.893106,1.979 -5.856706,4.31659 -6.585418,5.1946 l -1.325408,1.59665 1.362969,0.89737 c 1.417736,0.93315 6.634355,0.36171 9.312742,-1.01947 0.849255,-0.43851 4.962769,-2.21834 9.140301,-3.95691 10.148027,-4.22294 24.9248573,-14.22388 33.8895734,-22.93696 l 7.3044136,-7.09996 5.23503,-10.88858 c 11.015322,-22.91404 22.44611,-69.07386 17.105341,-69.07386 z m -326.838449,15.99411 c -5.95282,-0.0741 -10.41381,0.59391 -12.08179,2.25311 -5.25696,5.22901 16.8007,54.45732 31.67393,70.69 l 3.63005,3.96236 9.42958,-0.84279 c 23.08333,-2.06124 39.31721,-0.61797 51.2063,4.55202 3.6554,1.58953 6.82845,2.9328 7.04992,2.98609 0.22202,0.0554 -0.48846,-0.86406 -1.57713,-2.03895 -12.23953,-13.20609 -27.77449,-49.31814 -27.78254,-64.57742 -0.003,-7.1182 -40.28811,-16.73438 -61.54832,-16.98442 z m 371.996169,20.57959 c -13.346869,-0.0952 -26.595792,1.80415 -39.184266,5.64393 l -8.140255,2.48254 -1.616172,4.8636 c -8.401137,25.2935 -19.21839,41.58901 -34.498667,51.96572 -3.960316,2.6894 -5.7885237,4.5523 -5.7885237,5.89972 v 1.968 l 3.5604816,-0.68737 c 9.7131319,-1.87742 19.8232281,-0.45884 37.2663281,5.23217 11.087941,3.61757 14.779512,4.35885 15.348826,3.07785 0.173922,-0.39131 3.093856,-2.38623 6.488096,-4.43249 25.035218,-15.09239 41.198239,-37.6325 48.004663,-66.94313 1.69991,-7.32003 1.76393,-7.25381 -8.081875,-8.30861 -4.45007,-0.47644 -8.909582,-0.72993 -13.358636,-0.7623 z m -324.163849,60.57196 c -12.62261,0.17017 -25.1158,1.17018 -29.14559,2.89005 -1.75392,0.74842 -7.24752,2.64213 -12.20835,4.20723 -11.21237,3.53735 -41.77533,15.53783 -41.77533,16.403 0,0.67533 25.0726,17.97327 26.051,17.97327 0.31454,0 2.37782,1.14206 4.5868,2.53685 16.31743,10.30288 39.01776,19.26659 54.81267,21.64496 15.01727,2.26116 37.78079,1.49166 38.58767,-1.30459 0.24053,-0.8326 1.05463,-2.7227 1.81081,-4.2002 0.75582,-1.47759 1.1254,-3.68084 0.82058,-4.89561 -0.31824,-1.26889 0.0648,-3.15528 0.90291,-4.43388 l 1.45752,-2.22526 -15.85644,-0.0187 -15.85514,-0.0187 -7.59509,-2.70235 c -8.36219,-2.97563 -15.66595,-6.2274 -15.66595,-6.9748 0,-0.77247 18.23989,1.2293 32.28043,3.54236 2.87201,0.47273 9.70859,1.13233 15.19165,1.46444 l 9.9692,0.60317 -1.89843,-1.37545 c -1.75965,-1.27443 -17.20219,-7.37832 -23.73673,-9.38231 -6.83714,-2.09685 -33.29324,-6.50623 -39.0382,-6.50623 -4.44322,0 -4.86045,-1.67353 -0.62722,-2.51585 17.1009,-3.40312 39.97876,-0.1851 55.20343,7.76616 10.91865,5.70211 11.52136,5.89323 11.52136,3.66888 0,-0.83814 1.0686,-2.79336 2.37412,-4.34477 1.30543,-1.55151 2.37264,-3.39934 2.37264,-4.10704 0,-0.70772 1.28183,-2.2002 2.84833,-3.31571 3.53679,-2.51835 3.86984,-6.49004 0.71233,-8.49355 -5.8369,-3.70351 -21.97791,-12.39337 -23.02042,-12.39337 -0.65313,0 -2.97433,-0.63094 -5.15704,-1.40052 -4.54776,-1.60462 -17.30045,-2.26579 -29.92297,-2.09594 z m 239.543675,17.71323 c -8.521956,-0.002 -17.262054,0.3312 -20.704769,1.00273 -2.895881,0.56524 -8.362653,1.72958 -12.148585,2.58828 l -6.884413,1.56047 v 2.28503 c 0,1.30571 1.017346,3.08294 2.374026,4.15017 1.655952,1.30255 2.374116,2.79411 2.374116,4.93176 0,1.68538 0.523615,3.58723 1.162683,4.22665 0.639253,0.63927 1.386282,3.39638 1.66067,6.1251 l 0.499561,4.96092 8.070778,-0.47459 c 26.2687683,-1.54531 47.968867,-0.31823 59.33971,3.35455 l 3.798235,1.22671 -22.312523,-0.0369 c -23.551804,-0.0369 -28.981385,0.57636 -40.27054,4.53814 -8.041729,2.82244 -7.842275,2.61891 -5.482496,5.61878 1.511358,1.92145 1.916372,3.76669 1.8456,8.4227 -0.133227,8.77903 5.970401,12.82085 25.3931496,16.81197 4.7549876,0.97702 21.8257284,0.3423 25.6351594,-0.95267 1.566585,-0.53287 6.052737,-1.88243 9.969202,-2.99996 16.656939,-4.75296 64.446427,-25.43866 64.53014,-27.93138 0.09442,-2.82003 -36.440193,-23.52183 -52.661124,-29.83953 -4.177534,-1.62709 -8.450537,-3.32586 -9.494897,-3.77464 -1.044454,-0.44867 -4.462005,-1.47093 -7.595179,-2.27253 -3.133172,-0.80208 -7.499983,-1.93119 -9.703603,-2.50901 -2.569038,-0.67348 -10.8726685,-1.01244 -19.3946229,-1.0153 z m -291.791745,35.15373 c -2.77802,0 -47.02285,25.22903 -47.02285,26.81311 0,1.61895 31.78078,15.97957 43.20093,19.52127 1.56659,0.4857 3.27472,0.58744 3.79685,0.22481 0.98044,-0.67996 11.05686,-8.59717 14.01648,-11.01374 0.91956,-0.7512 1.90055,-1.36574 2.18077,-1.36574 0.28031,0 2.8475,-1.49416 5.70369,-3.32126 5.86827,-3.75392 20.43464,-10.9205 22.19707,-10.9205 3.55003,0 -0.73454,-2.42481 -9.3058,-5.26694 -5.38555,-1.78585 -15.14947,-5.81777 -21.69779,-8.95954 -6.54841,-3.14168 -12.42982,-5.71201 -13.06935,-5.71201 z m 94.81335,16.61587 -5.16823,0.30991 c -5.03438,0.30252 -15.00904,1.84227 -25.58225,3.94987 -20.72262,4.13072 -41.41157,15.06954 -61.08243,32.29431 -8.81004,7.7145 -28.16498,34.6798 -28.16498,39.23986 0,0.92512 18.30864,3.73699 37.9771,5.83303 41.57652,4.43065 57.56941,0.11186 91.42114,-24.68664 l 6.44499,-4.7203 -0.55044,-2.22119 c -0.30252,-1.22088 -1.59915,-3.35224 -2.88312,-4.73695 -1.28396,-1.38481 -2.33517,-3.07119 -2.33517,-3.74689 0,-0.67535 -1.49489,-2.11076 -3.32263,-3.18906 -2.58366,-1.52439 -3.32394,-2.57319 -3.32394,-4.71483 0,-3.15123 -0.73361,-3.30942 -6.71335,-1.44225 -2.31242,0.72158 -6.12703,1.87373 -8.47691,2.55775 -5.71979,1.66473 -22.41947,8.34488 -31.80751,12.72438 -20.48191,9.55465 -20.34213,9.50802 -15.55606,5.19321 8.89598,-8.02028 28.97908,-18.54695 49.73621,-26.06913 l 8.54508,-3.09591 -0.28678,-2.57292 c -0.15819,-1.41496 0.37559,-3.58581 1.18636,-4.82335 1.52126,-2.32176 1.83802,-9.3799 0.6152,-13.70905 z m 285.844753,1.54373 -2.824744,1.29062 c -11.87577,5.42894 -16.560627,7.39287 -22.99544,9.63692 -4.049868,1.41226 -7.485459,2.65173 -7.634032,2.75508 -0.148936,0.10355 5.406175,5.81803 12.34332,12.69939 l 12.613092,12.5116 2.372726,-0.60964 c 1.305521,-0.33583 4.724452,-0.96555 7.596467,-1.39916 4.548787,-0.68643 22.604588,-4.2866 32.181628,-6.41714 l 3.22393,-0.71789 -5.67308,-5.44908 c -6.90587,-6.63344 -23.271303,-19.79271 -27.857651,-22.40024 z m -113.733766,17.63674 c -1.590547,-0.0463 -2.527039,0.36264 -2.527039,1.32679 0,2.00712 -5.034743,7.77159 -7.495079,8.58116 l -1.322635,0.43573 1.233638,2.30316 c 0.678107,1.26703 1.177484,3.811 1.109857,5.65217 l -0.122104,3.34771 8.261353,4.27243 c 18.488197,9.56078 31.32358495,20.84253 40.3512082,35.47089 7.0575018,11.43614 6.2730978,11.92711 -3.2239258,2.01525 -12.0810519,-12.60872 -16.4017924,-16.62521 -23.4237694,-21.77845 -5.316809,-3.90185 -24.425019,-15.70769 -25.423771,-15.70769 -0.211851,0 1.216431,2.14516 3.173879,4.76768 1.957352,2.6225 4.413065,5.94468 5.457425,7.38239 1.044361,1.43763 6.410665,7.94294 11.924708,14.4573 11.879561,14.03471 16.4718213,20.07884 13.709064,18.04138 -9.368711,-6.90921 -24.614482,-22.1981 -30.601721,-30.68785 -2.870626,-4.0706 -5.490174,-7.26122 -5.821828,-7.09035 -0.332115,0.1712 -1.778067,0.8992 -3.214121,1.61893 -1.436052,0.71976 -2.611964,1.92341 -2.611964,2.67453 0,0.75117 -1.256025,2.54071 -2.792731,3.97622 -1.536613,1.43549 -3.079423,3.74625 -3.428284,5.13623 -0.348766,1.38998 -1.034275,2.7744 -1.522921,3.07646 -1.097831,0.67811 6.177905,9.58555 13.332173,16.32092 14.181244,13.35107 38.1398196,25.40889 66.096181,33.26513 8.64666,2.42981 14.556466,4.00158 19.938496,5.30173 3.133174,0.75675 6.017122,1.40589 6.408814,1.44364 1.220871,0.11746 0.789122,-2.51409 -1.268423,-7.72868 -1.089321,-2.76091 -2.829642,-7.58295 -3.866417,-10.71613 -1.036867,-3.13318 -2.252741,-6.55211 -2.702347,-7.59647 -0.449606,-1.04436 -1.436792,-3.3934 -2.194646,-5.22106 -0.757667,-1.82766 -2.282808,-5.34855 -3.388042,-7.82323 -1.105138,-2.47476 -2.009714,-4.73269 -2.009714,-5.01798 0,-5.674 -19.868098,-38.42124 -27.3639183,-45.10213 -8.5945776,-7.66022 -27.7787377,-16.21688 -34.6711067,-16.39744 z m 71.232407,0.531 c -2.247469,-0.149 -4.78006,0.72251 -9.002646,2.04719 -4.023132,1.26242 -9.664562,2.80559 -12.536576,3.42976 -2.872105,0.62445 -6.211764,1.5181 -7.421348,1.98604 l -2.198809,0.85109 2.766273,2.32824 c 6.437492,5.41681 19.017919,27.30092 25.394537,44.17728 1.479811,3.91648 3.039366,7.52739 3.467232,8.02342 0.427401,0.49586 0.778943,1.57538 0.778943,2.39918 0,0.82335 0.691986,2.48661 1.53828,3.69537 l 1.539572,2.19743 26.231857,-0.43109 c 14.427605,-0.23776 27.19444,-0.75398 28.369431,-1.14744 4.62111,-1.54881 -20.931529,-35.38474 -43.573663,-57.69855 -8.654432,-8.52899 -11.607208,-11.6099 -15.352991,-11.85792 z m -225.043264,36.23575 c -5.77511,0.5338 -26.87167,23.30961 -31.7867,35.67394 -5.34632,13.44947 -11.04641,62.07008 -7.53116,64.2367 0.39132,0.24145 0.73361,2.2286 0.75767,4.41713 0.037,2.91014 2.13719,20.70117 2.74407,23.20544 0.21462,0.88718 2.3928,-0.41168 20.90228,-12.47125 49.52648,-32.26712 62.94015,-46.13372 72.57308,-75.02372 2.82427,-8.47014 2.75841,-8.79144 -1.54235,-7.55344 -3.39156,0.97635 -9.18175,0.0463 -13.07074,-2.10982 -1.30552,-0.7225 -3.68935,-1.93719 -5.29757,-2.69947 -1.60812,-0.7623 -3.41533,-1.97929 -4.01656,-2.70374 -0.63463,-0.76414 -2.21204,-1.15316 -3.7579,-0.92632 l -2.6634,0.39041 -2.24201,5.85661 c -6.34683,16.58459 -11.23633,24.06394 -25.06215,38.33594 -13.47177,13.90649 -13.50887,13.21033 -0.35339,-6.55489 6.01499,-9.03697 12.42233,-19.20748 14.23897,-22.6018 9.75439,-18.22482 10.11833,-19.03549 8.50336,-18.95234 -1.10893,0.0554 -13.71887,12.14878 -19.27084,18.47812 -14.57793,16.61881 -17.00913,18.49439 -12.18753,9.4059 6.74481,-12.71383 12.49809,-19.99188 21.11644,-26.71302 l 2.71206,-2.11536 -2.47431,-2.94296 c -1.36139,-1.61803 -2.4756,-3.94838 -2.4756,-5.17934 0,-1.57593 -1.1945,-3.03807 -4.03608,-4.94149 -2.82224,-1.89047 -4.1249,-3.47787 -4.33508,-5.28359 -0.10824,-0.92669 -0.61983,-1.30442 -1.44503,-1.22809 z m 118.638985,16.63251 c -4.795044,-0.0187 -10.079105,3.16539 -10.079105,7.5729 0,0.44404 -1.521811,1.53078 -3.381011,2.41306 -4.460803,2.11676 -4.900508,3.67659 -2.456082,8.70771 1.121513,2.30844 2.038855,4.65425 2.038855,5.21414 0,0.55967 0.603174,2.36411 1.340768,4.00971 3.560481,7.94551 5.934969,18.64972 7.087475,31.95073 0.993757,11.46936 0.08326,15.19839 -1.691199,6.94564 -0.654055,-3.03678 -1.569268,-6.80329 -2.033307,-8.36986 -0.464406,-1.56658 -1.541052,-5.41182 -2.393636,-8.545 -0.852955,-3.13326 -1.891395,-6.55221 -2.308712,-7.59657 -0.417227,-1.04444 -1.293864,-3.3933 -1.947085,-5.22104 -0.65313,-1.82766 -1.715992,-4.60577 -2.36163,-6.17237 -0.645727,-1.56658 -2.358667,-5.74088 -3.806561,-9.27656 -3.11754,-7.6134 -5.158523,-8.67924 -10.407338,-5.43522 -2.661637,1.64493 -4.143677,1.95152 -6.912257,1.42826 -1.93839,-0.36633 -6.30233,-0.73175 -9.69657,-0.81225 l -6.17097,-0.14422 0.0185,2.84834 c 0.0463,8.2693 2.39956,23.20987 5.37814,34.18024 5.33957,19.6655 27.371322,48.33631 56.793153,73.9069 l 0.0014,-0.001 c 8.500865,7.38806 7.687782,8.21492 12.45045,-12.66737 2.256812,-9.89537 2.743329,-12.27922 4.170964,-20.41271 0.825199,-4.69977 1.887323,-10.03998 2.360148,-11.86763 0.472732,-1.82774 0.831677,-3.96494 0.798372,-4.74824 -0.037,-0.78357 0.379296,-7.19211 0.916788,-14.24175 2.137842,-28.04118 -2.442762,-40.82986 -22.014822,-61.47589 -1.434943,-1.51366 -3.513024,-2.18187 -5.692592,-2.18917 z m -154.191915,9.00959 c -0.57079,-0.0369 -1.61571,0.41076 -3.17943,1.28786 -5.35733,3.00402 -13.44689,5.23142 -22.9008,6.30593 -1.17351,0.13323 -2.98756,0.52361 -4.03192,0.86685 -1.71905,0.5643 -10.66813,13.17768 -15.25983,21.50998 -1.00717,1.82774 -2.0865,3.53726 -2.3991,3.79832 -0.31269,0.26089 -1.7616,2.61141 -3.22106,5.22245 -1.45955,2.61094 -5.79805,10.35923 -9.63967,17.2194 -3.84154,6.86019 -6.98452,12.90849 -6.98452,13.44069 0,0.61799 1.11514,0.6883 3.08618,0.19154 1.69712,-0.42739 6.50373,-1.51921 10.68126,-2.42554 10.71846,-2.32546 34.30958,-9.33755 40.46806,-12.02898 l 2.48809,-1.08765 0.60317,-7.65495 c 1.4862,-18.88637 4.32305,-31.60666 9.38509,-42.07848 1.48656,-3.07518 1.85457,-4.5017 0.90383,-4.56738 z m -71.60791,6.08891 -1.56464,2.13767 c -3.968,5.41941 -12.48246,18.4573 -12.48246,19.11366 0,0.98414 4.46635,0.9214 12.16116,-0.16933 3.49434,-0.49587 10.09077,-1.17443 14.65897,-1.50906 l 8.30586,-0.6078 5.68,-7.7481 c 3.1242,-4.26133 5.68732,-8.00563 5.69805,-8.31971 0.009,-0.31454 -5.85569,-0.83539 -13.03586,-1.15854 -7.18026,-0.32377 -14.48828,-0.84646 -16.23897,-1.16276 z m 340.391724,8.20983 c -3.328927,0.0647 -2.649523,1.59249 -0.623527,8.78847 1.286555,4.56904 3.177209,11.51166 4.201587,15.42812 1.024285,3.91647 2.300292,8.14581 2.835841,9.39758 l 0.973497,2.2754 -5.628481,-0.58838 c -6.219536,-0.65034 -9.629593,-1.42096 -26.027408,-5.88446 -6.135812,-1.67009 -11.155566,-2.8226 -11.155566,-2.56182 0,2.03701 7.891029,16.30688 9.230684,16.69239 9.645043,2.77504 28.507913,6.78614 38.629389,8.21398 3.608035,0.50881 6.777943,1.14104 7.042986,1.40608 1.280992,1.28099 7.760677,0.42278 7.760677,-1.02782 0,-3.69248 -9.300901,-35.45559 -12.763328,-43.58891 -0.667004,-1.56658 -1.667052,-3.97076 -2.222491,-5.34346 l -1.00976,-2.4964 -6.481063,-0.44961 c -2.098897,-0.14527 -3.653919,-0.28401 -4.7635,-0.26089 z m -80.951273,8.38375 c -0.752118,0.0832 -0.443131,1.05313 0.09251,2.77884 0.804848,2.60873 0.95925,16.2448 0.450531,39.52776 -0.08326,3.64162 0.297887,5.34133 1.31292,5.9137 3.456501,1.94939 28.4599904,13.56161 32.756032,15.21257 2.610945,1.00337 5.6022052,2.1888 6.6465654,2.63407 1.7049826,0.72713 7.1924766,2.87654 12.3419336,4.83446 1.044452,0.39686 2.967022,1.1476 4.272542,1.6676 4.288175,1.70804 3.692495,-1.70906 -2.919286,-16.74241 -1.005322,-2.28578 -1.827469,-4.5535 -1.827469,-5.0403 0,-0.48661 -3.816091,-8.65776 -8.479679,-18.15682 l -8.4783835,-17.27086 -8.4170476,-3.12381 c -4.6288039,-1.71795 -12.6404659,-5.2428 -17.8050019,-7.83294 -6.253857,-3.1365 -8.97554,-4.50577 -9.942745,-4.40186 z m -93.489331,8.9957 -1.46307,1.93459 c -0.80484,1.06397 -2.93927,4.55275 -4.74407,7.75227 -4.60521,8.16412 -20.8279,23.98687 -31.63498,30.85621 l -1.49378,0.94992 0.77062,4.27254 c 3.2725,18.1359 15.84534,43.78567 28.50717,58.1575 2.18725,2.48263 4.31381,4.3052 4.72456,4.05145 3.22522,-1.99334 28.51688,-50.52551 28.51688,-54.72091 0,-1.16269 -2.4867,-5.78066 -5.52708,-10.26126 -7.59953,-11.19951 -12.07227,-20.9402 -15.09424,-32.87426 z m 93.386364,45.77663 c -1.228643,0.0648 -1.842732,0.91956 -1.842732,2.5535 0,1.41069 -0.917711,6.99698 -2.040337,12.41428 l -2.041723,9.84958 6.713359,6.81215 c 3.692403,3.74654 8.750181,9.05519 11.2404,11.79668 5.215602,5.7419 5.677327,5.91368 6.340725,2.37273 1.741433,-9.29684 4.4741253,-28.51652 4.4741253,-31.47096 v -3.52838 l -6.8844143,-3.25595 c -3.785932,-1.79007 -8.476164,-4.22184 -10.423989,-5.40459 -2.462466,-1.49517 -4.306771,-2.20806 -5.535414,-2.13904 z m -138.186724,1.62589 c -4.83982,0.34228 -16.52307,7.47685 -16.49615,11.18054 0.0185,2.16531 2.46857,18.75074 3.72034,25.15955 0.45886,2.34988 1.3207,7.01922 1.91656,10.37533 0.59577,3.35612 1.30173,6.45323 1.56742,6.88302 0.95962,1.55282 2.13109,0.66238 8.65628,-6.57707 14.68025,-16.287 13.60046,-13.86941 9.90528,-22.18042 -2.36977,-5.32995 -5.60064,-15.98003 -7.24049,-23.86746 -0.16004,-0.76969 -0.91216,-1.0526 -2.02924,-0.97349 z m 302.97239,52.48166 c -0.26089,0 -0.47459,0.21277 -0.47459,0.47457 0,0.26089 0.21279,0.4746 0.47459,0.4746 0.26087,0 0.47551,-0.21279 0.47551,-0.4746 0,-0.26087 -0.21464,-0.47457 -0.47551,-0.47457 z" /></g></svg>
